# Blender v2.91.0 OBJ File: 'Jason_Nguyen_Syringe.blend'
# www.blender.org
mtllib Jason_Nguyen_Syringe.mtl
o Cylinder
v -0.000000 -0.614605 -0.350767
v 0.175384 -0.614605 -0.303773
v 0.303773 -0.614605 -0.175383
v 0.350767 -0.614605 0.000000
v 0.303773 -0.614605 0.175384
v 0.175384 -0.614605 0.303773
v 0.000000 -0.614605 0.350767
v -0.175384 -0.614605 0.303773
v -0.303773 -0.614605 0.175384
v -0.350767 -0.614605 0.000000
v -0.303773 -0.614605 -0.175383
v -0.175384 -0.614605 -0.303773
v 0.000000 1.413661 -0.350767
v 0.175384 1.413661 -0.303773
v 0.303773 1.413661 -0.175383
v 0.350767 1.413661 0.000000
v 0.303773 1.413661 0.175384
v 0.175384 1.413661 0.303773
v 0.000000 1.413661 0.350767
v -0.175383 1.413661 0.303773
v -0.303773 1.413661 0.175384
v -0.350767 1.413661 0.000000
v -0.303773 1.413661 -0.175383
v -0.175384 1.413661 -0.303773
v 0.000000 1.413661 -0.980553
v 0.490277 1.413661 -0.849183
v 0.849184 1.413661 -0.490276
v 0.980553 1.413661 0.000000
v 0.849184 1.413661 0.490276
v 0.490277 1.413661 0.849184
v 0.000000 1.413661 0.980553
v -0.490276 1.413661 0.849184
v -0.849183 1.413661 0.490277
v -0.980553 1.413661 0.000000
v -0.849184 1.413661 -0.490276
v -0.490277 1.413661 -0.849183
v 0.000000 5.551267 -0.980553
v 0.490277 5.551267 -0.849183
v 0.849184 5.551267 -0.490276
v 0.980553 5.551267 0.000000
v 0.849184 5.551267 0.490276
v 0.490277 5.551267 0.849184
v 0.000001 5.551267 0.980553
v -0.490276 5.551267 0.849184
v -0.849183 5.551267 0.490277
v -0.980552 5.551267 0.000000
v -0.849183 5.551267 -0.490276
v -0.490277 5.551267 -0.849183
v 0.000000 5.551267 -0.405286
v 0.202643 5.551267 -0.350987
v 0.350988 5.551267 -0.202643
v 0.405286 5.551267 0.000000
v 0.350988 5.551267 0.202643
v 0.202643 5.551267 0.350988
v 0.000000 5.551267 0.405286
v -0.202642 5.551267 0.350988
v -0.350987 5.551267 0.202643
v -0.405285 5.551267 0.000000
v -0.350987 5.551267 -0.202643
v -0.202643 5.551267 -0.350987
v 0.000000 6.173806 -0.405286
v 0.202643 6.173806 -0.350987
v 0.350988 6.173806 -0.202643
v 0.405286 6.173806 0.000000
v 0.350988 6.173806 0.202643
v 0.202643 6.173806 0.350988
v 0.000000 6.173806 0.405286
v -0.202642 6.173806 0.350988
v -0.350987 6.173806 0.202643
v -0.405285 6.173806 0.000000
v -0.350987 6.173806 -0.202643
v -0.202643 6.173806 -0.350987
v 0.000000 6.173806 -0.171323
v 0.085662 6.173806 -0.148370
v 0.148370 6.173806 -0.085661
v 0.171323 6.173806 0.000000
v 0.148370 6.173806 0.085662
v 0.085662 6.173806 0.148370
v 0.000000 6.173806 0.171323
v -0.085661 6.173806 0.148370
v -0.148370 6.173806 0.085662
v -0.171323 6.173806 0.000000
v -0.148370 6.173806 -0.085661
v -0.085661 6.173806 -0.148370
v 0.000007 9.997149 -0.171323
v 0.085668 9.924548 -0.148370
v 0.148377 9.866399 -0.085661
v 0.171330 9.843264 0.000000
v 0.148377 9.866399 0.085662
v 0.085668 9.924548 0.148370
v 0.000007 9.997150 0.171323
v -0.085655 10.064099 0.148370
v -0.148363 10.110172 0.085662
v -0.171316 10.126478 0.000000
v -0.148363 10.110172 -0.085661
v -0.085655 10.064099 -0.148370
v 0.000000 -1.000000 -0.919328
v 0.000000 -0.922077 -1.000000
v 0.000000 -0.977177 -0.976372
v 0.000000 -0.692528 -1.000000
v -0.000000 -0.614605 -0.919328
v -0.000000 -0.637428 -0.976372
v 0.459664 -1.000000 -0.796161
v 0.500000 -0.922077 -0.866025
v 0.488186 -0.977177 -0.845563
v 0.459664 -0.614605 -0.796161
v 0.500000 -0.692528 -0.866025
v 0.488186 -0.637428 -0.845563
v 0.796161 -1.000000 -0.459664
v 0.866025 -0.922077 -0.500000
v 0.845563 -0.977177 -0.488186
v 0.796161 -0.614605 -0.459664
v 0.866025 -0.692528 -0.500000
v 0.845563 -0.637428 -0.488186
v 0.919328 -1.000000 0.000000
v 1.000000 -0.922077 0.000000
v 0.976372 -0.977177 0.000000
v 0.919328 -0.614605 0.000000
v 1.000000 -0.692528 0.000000
v 0.976372 -0.637428 0.000000
v 0.796161 -1.000000 0.459664
v 0.866025 -0.922077 0.500000
v 0.845563 -0.977177 0.488186
v 0.796161 -0.614605 0.459664
v 0.866025 -0.692528 0.500000
v 0.845563 -0.637428 0.488186
v 0.459664 -1.000000 0.796161
v 0.500000 -0.922077 0.866025
v 0.488186 -0.977177 0.845563
v 0.459664 -0.614605 0.796161
v 0.500000 -0.692528 0.866025
v 0.488186 -0.637428 0.845563
v 0.000000 -1.000000 0.919328
v 0.000000 -0.922077 1.000000
v 0.000000 -0.977177 0.976372
v 0.000000 -0.614605 0.919328
v 0.000000 -0.692528 1.000000
v 0.000000 -0.637428 0.976372
v -0.459664 -1.000000 0.796161
v -0.500000 -0.922077 0.866026
v -0.488186 -0.977177 0.845563
v -0.459664 -0.614605 0.796161
v -0.500000 -0.692528 0.866026
v -0.488186 -0.637428 0.845563
v -0.796161 -1.000000 0.459664
v -0.866025 -0.922077 0.500000
v -0.845563 -0.977177 0.488186
v -0.796161 -0.614605 0.459664
v -0.866025 -0.692528 0.500000
v -0.845563 -0.637428 0.488186
v -0.919328 -1.000000 0.000000
v -1.000000 -0.922077 0.000000
v -0.976372 -0.977177 0.000000
v -0.919328 -0.614605 0.000000
v -1.000000 -0.692528 0.000000
v -0.976372 -0.637428 0.000000
v -0.796162 -1.000000 -0.459664
v -0.866026 -0.922077 -0.499999
v -0.845563 -0.977177 -0.488185
v -0.796162 -0.614605 -0.459663
v -0.866026 -0.692528 -0.499999
v -0.845563 -0.637428 -0.488185
v -0.459665 -1.000000 -0.796161
v -0.500001 -0.922077 -0.866025
v -0.488186 -0.977177 -0.845562
v -0.459664 -0.614605 -0.796161
v -0.500001 -0.692528 -0.866025
v -0.488186 -0.637428 -0.845562
vt 0.900062 0.246439
vt 0.887493 0.253134
vt 0.869950 0.228581
vt 0.881088 0.219074
vt 0.813851 0.197899
vt 0.842040 0.213842
vt 0.813306 0.254674
vt 0.797128 0.247678
vt 0.777521 0.185540
vt 0.779330 0.245744
vt 0.836508 0.420163
vt 0.806142 0.433384
vt 0.804986 0.384401
vt 0.820000 0.379996
vt 0.859225 0.403777
vt 0.832317 0.370654
vt 0.876759 0.383974
vt 0.841721 0.358157
vt 0.889147 0.360990
vt 0.848015 0.343478
vt 0.896051 0.335617
vt 0.850951 0.327413
vt 0.897136 0.308942
vt 0.850332 0.310752
vt 0.892211 0.282197
vt 0.846083 0.294306
vt 0.917605 0.307808
vt 0.903967 0.308463
vt 0.898899 0.280184
vt 0.912318 0.276485
vt 0.881266 0.256658
vt 0.838291 0.278910
vt 0.864468 0.233549
vt 0.827219 0.265409
vt 0.846602 0.207490
vt 0.855945 0.195536
vt 0.712479 0.948100
vt 0.712479 0.927698
vt 0.940386 0.927697
vt 0.940386 0.948100
vt 0.915942 0.338970
vt 0.902708 0.336645
vt 0.907589 0.368599
vt 0.895338 0.363457
vt 0.893015 0.395485
vt 0.882240 0.387783
vt 0.872856 0.418742
vt 0.863856 0.408850
vt 0.847817 0.438372
vt 0.840267 0.426586
vt 0.817461 0.190048
vt 0.825384 0.175971
vt 0.817885 0.458044
vt 0.808410 0.442005
vt 0.779472 0.175342
vt 0.788665 0.155860
vt 0.209907 0.049224
vt 0.227712 0.043859
vt 0.241266 0.096794
vt 0.218223 0.101469
vt 0.712479 0.886894
vt 0.712479 0.866491
vt 0.940386 0.866491
vt 0.940386 0.886893
vt 0.712479 0.784883
vt 0.712479 0.764480
vt 0.940386 0.764481
vt 0.940386 0.784883
vt 0.712479 0.825687
vt 0.712479 0.805285
vt 0.940386 0.805285
vt 0.940386 0.825687
vt 0.712480 0.968502
vt 0.940386 0.968502
vt 0.712479 0.907296
vt 0.940386 0.907295
vt 0.712479 0.846089
vt 0.940386 0.846089
vt 0.712479 0.744078
vt 0.712479 0.723676
vt 0.940386 0.723677
vt 0.940386 0.744079
vt 0.266227 0.089813
vt 0.294377 0.078852
vt 0.299341 0.284329
vt 0.274022 0.277438
vt 0.090138 0.052024
vt 0.105559 0.057370
vt 0.089128 0.100030
vt 0.063951 0.091386
vt 0.138948 0.059763
vt 0.156346 0.058597
vt 0.154279 0.107195
vt 0.133326 0.106668
vt 0.245078 0.036704
vt 0.191956 0.053315
vt 0.196353 0.104583
vt 0.077871 0.042602
vt 0.035289 0.075243
vt 0.121966 0.059571
vt 0.111844 0.104536
vt 0.174054 0.056411
vt 0.175165 0.106463
vt 0.261492 0.026946
vt 0.275903 0.013366
vt 0.328167 0.059761
vt 0.163633 0.275810
vt 0.185602 0.273999
vt 0.186353 0.318274
vt 0.166301 0.321036
vt 0.250946 0.274194
vt 0.228906 0.272960
vt 0.091878 0.288168
vt 0.063380 0.297360
vt 0.141027 0.278510
vt 0.207257 0.273009
vt 0.029356 0.313765
vt 0.117344 0.282398
vt 0.328167 0.298035
vt 0.836727 0.780819
vt 0.837560 0.754466
vt 0.900982 0.759045
vt 0.900719 0.776758
vt 0.280065 0.320072
vt 0.262761 0.315580
vt 0.244488 0.314202
vt 0.225576 0.314618
vt 0.106489 0.335185
vt 0.087682 0.344051
vt 0.146165 0.324498
vt 0.206158 0.316098
vt 0.070741 0.357158
vt 0.126138 0.329005
vt 0.294213 0.329100
vt 0.916796 0.831392
vt 0.908331 0.812991
vt 0.937907 0.802146
vt 0.944915 0.814411
vt 0.874543 0.657183
vt 0.891420 0.636138
vt 0.943109 0.683557
vt 0.928290 0.696155
vt 0.849532 0.703569
vt 0.860488 0.679689
vt 0.917308 0.710195
vt 0.909250 0.725506
vt 0.866033 0.884360
vt 0.854355 0.859157
vt 0.929635 0.850336
vt 0.839347 0.807274
vt 0.903112 0.794788
vt 0.841850 0.728597
vt 0.903831 0.741874
vt 0.878726 0.908503
vt 0.950367 0.870835
vt 0.845309 0.833472
vt 0.910603 0.616365
vt 0.964651 0.672380
vt 0.453235 0.862390
vt 0.453235 0.871023
vt 0.081012 0.871021
vt 0.074494 0.862387
vt 0.929956 0.762511
vt 0.930561 0.775821
vt 0.955875 0.707819
vt 0.946665 0.715729
vt 0.939622 0.725742
vt 0.934519 0.737150
vt 0.954498 0.825298
vt 0.933178 0.789144
vt 0.931292 0.749519
vt 0.967142 0.833601
vt 0.967142 0.703822
vt 0.047389 0.920806
vt 0.058057 0.924080
vt 0.066280 0.931111
vt 0.070007 0.940099
vt 0.068420 0.948734
vt 0.062019 0.954743
vt 0.052444 0.956475
vt 0.042081 0.953367
vt 0.033553 0.946170
vt 0.029167 0.936822
vt 0.030376 0.927981
vt 0.037155 0.922178
vt 0.453235 0.888291
vt 0.453235 0.896925
vt 0.095995 0.896925
vt 0.093742 0.888291
vt 0.453235 0.931460
vt 0.453235 0.940094
vt 0.074494 0.931463
vt 0.453235 0.914192
vt 0.453235 0.922826
vt 0.081012 0.922828
vt 0.088080 0.914194
vt 0.453235 0.853756
vt 0.070007 0.853750
vt 0.453235 0.879657
vt 0.088080 0.879655
vt 0.453235 0.905559
vt 0.093742 0.905559
vt 0.453235 0.845122
vt 0.068419 0.845116
vt 0.453235 0.948728
vt 0.858594 0.192113
vt 0.884241 0.216338
vt 0.861428 0.188549
vt 0.887608 0.213483
vt 0.867223 0.231067
vt 0.844332 0.210656
vt 0.827710 0.172024
vt 0.830182 0.168017
vt 0.815660 0.193911
vt 0.791739 0.151566
vt 0.795350 0.147827
vt 0.778119 0.180268
vt 0.850140 0.441565
vt 0.820712 0.461488
vt 0.852602 0.444958
vt 0.824160 0.464581
vt 0.806937 0.437761
vt 0.838343 0.423397
vt 0.875507 0.421509
vt 0.878293 0.424445
vt 0.861526 0.406338
vt 0.896132 0.397631
vt 0.899419 0.399927
vt 0.879494 0.385898
vt 0.911106 0.370017
vt 0.914819 0.371550
vt 0.892243 0.362240
vt 0.919722 0.339586
vt 0.923721 0.340276
vt 0.899385 0.336146
vt 0.921489 0.307577
vt 0.925605 0.307373
vt 0.900561 0.308716
vt 0.916131 0.275389
vt 0.920181 0.274271
vt 0.895567 0.281201
vt 0.903626 0.244495
vt 0.907422 0.242477
vt 0.884393 0.254903
vt 0.905345 0.148016
vt 0.870443 0.168087
vt 0.775280 0.112925
vt 0.775349 0.072664
vt 0.795539 0.037832
vt 0.830441 0.017762
vt 0.870702 0.017831
vt 0.905534 0.038022
vt 0.925605 0.072923
vt 0.925535 0.113184
vn -0.4904 -0.1949 -0.8494
vn -0.4904 0.1949 -0.8494
vn 0.0000 0.1949 -0.9808
vn 0.0000 -0.1949 -0.9808
vn 0.1898 0.9757 -0.1096
vn 0.1096 0.9757 -0.1898
vn 0.3189 0.7703 -0.5523
vn 0.5523 0.7703 -0.3189
vn 0.2191 0.9757 0.0000
vn 0.6377 0.7703 0.0000
vn 0.1898 0.9757 0.1096
vn 0.5523 0.7703 0.3189
vn 0.1096 0.9757 0.1898
vn 0.3189 0.7703 0.5523
vn 0.0000 0.9757 0.2191
vn 0.0000 0.7703 0.6377
vn -0.1096 0.9757 0.1898
vn -0.3189 0.7703 0.5523
vn -0.1898 0.9757 0.1096
vn -0.5523 0.7703 0.3189
vn -0.2191 0.9757 0.0000
vn -0.6377 0.7703 0.0000
vn -0.1898 0.9757 -0.1096
vn -0.5523 0.7703 -0.3189
vn -0.9808 -0.1949 0.0000
vn -0.9808 0.1949 0.0000
vn -0.8494 0.1949 -0.4904
vn -0.8494 -0.1949 -0.4904
vn -0.1096 0.9757 -0.1898
vn -0.3189 0.7703 -0.5523
vn 0.0000 0.9757 -0.2191
vn 0.0000 0.7703 -0.6377
vn 0.4904 0.1949 -0.8494
vn 0.4904 -0.1949 -0.8494
vn -0.3189 -0.7703 0.5523
vn -0.5523 -0.7703 0.3189
vn -0.8494 -0.1949 0.4904
vn -0.8494 0.1949 0.4904
vn -0.4904 -0.1949 0.8494
vn -0.4904 0.1949 0.8494
vn 0.0000 -0.1949 0.9808
vn 0.0000 0.1949 0.9808
vn 0.4904 -0.1949 0.8494
vn 0.4904 0.1949 0.8494
vn 0.8494 -0.1949 0.4904
vn 0.8494 0.1949 0.4904
vn 0.8494 0.1949 -0.4904
vn 0.8494 -0.1949 -0.4904
vn 0.9808 -0.1949 0.0000
vn 0.9808 0.1949 0.0000
vn 0.3189 -0.7703 -0.5523
vn 0.0000 -0.7703 -0.6377
vn 0.0000 -0.6532 -0.7571
vn 0.3786 -0.6532 -0.6557
vn 0.5523 -0.7703 0.3189
vn 0.3189 -0.7703 0.5523
vn -0.3189 -0.7703 -0.5523
vn 0.5523 -0.7703 -0.3189
vn -0.6377 -0.7703 0.0000
vn 0.0000 -0.7703 0.6377
vn 0.6377 -0.7703 0.0000
vn -0.5523 -0.7703 -0.3189
vn -0.3786 -0.6532 -0.6557
vn -0.6557 -0.6532 -0.3786
vn -0.6557 0.6532 -0.3786
vn -0.3786 0.6532 -0.6557
vn -0.3786 -0.6532 0.6557
vn -0.6557 -0.6532 0.3786
vn 0.6557 -0.6532 0.3786
vn 0.3786 -0.6532 0.6557
vn 0.6557 -0.6532 -0.3786
vn -0.7571 -0.6532 0.0000
vn 0.0000 -0.6532 0.7571
vn 0.7571 -0.6532 0.0000
vn 0.6557 0.6532 0.3786
vn 0.7571 0.6532 0.0000
vn 0.0000 0.6532 -0.7571
vn 0.3786 0.6532 -0.6557
vn -0.3786 0.6532 0.6557
vn -0.6557 0.6532 0.3786
vn 0.3786 0.6532 0.6557
vn 0.6557 0.6532 -0.3786
vn -0.7571 0.6532 0.0000
vn 0.0000 0.6532 0.7571
vn 0.3544 0.5382 0.7647
vn 0.0023 0.6610 0.7504
vn 0.6449 0.4491 -0.6183
vn 0.3544 0.5382 -0.7647
vn 0.0023 0.6610 -0.7504
vn -0.3372 0.8008 -0.4949
vn -0.4911 0.8711 0.0000
vn -0.3372 0.8008 0.4949
vn 0.6449 0.4491 0.6183
vn 0.8518 0.3819 0.3586
vn 0.9383 0.3458 0.0000
vn 0.8518 0.3819 -0.3586
vn 0.3641 -0.6854 -0.6306
vn 0.0000 -0.6854 -0.7282
vn 0.1096 -0.9757 -0.1898
vn 0.0000 -0.9757 -0.2191
vn 0.0000 0.6854 -0.7282
vn 0.3641 0.6854 -0.6306
vn 0.6306 -0.6854 -0.3641
vn 0.1898 -0.9757 -0.1096
vn 0.6306 0.6854 -0.3641
vn 0.7282 -0.6854 0.0000
vn 0.2191 -0.9757 0.0000
vn 0.7282 0.6854 0.0000
vn 0.6306 -0.6854 0.3641
vn 0.1898 -0.9757 0.1096
vn 0.6306 0.6854 0.3641
vn 0.3641 -0.6854 0.6306
vn 0.1096 -0.9757 0.1898
vn 0.3641 0.6854 0.6306
vn 0.0000 -0.6854 0.7282
vn 0.0000 -0.9757 0.2191
vn 0.0000 0.6854 0.7282
vn -0.3641 -0.6854 0.6306
vn -0.1096 -0.9757 0.1898
vn -0.3641 0.6854 0.6306
vn -0.6306 -0.6854 0.3641
vn -0.1898 -0.9757 0.1096
vn -0.6306 0.6854 0.3641
vn -0.7282 -0.6854 0.0000
vn -0.2191 -0.9757 0.0000
vn -0.7282 0.6854 0.0000
vn -0.6306 -0.6854 -0.3641
vn -0.1898 -0.9757 -0.1096
vn -0.6306 0.6854 -0.3641
vn -0.3641 -0.6854 -0.6306
vn -0.1096 -0.9757 -0.1898
vn -0.3641 0.6854 -0.6306
usemtl Material.001
s 1
f 164/1/1 167/2/2 100/3/3 98/4/4
f 112/5/5 106/6/6 2/7/7 3/8/8
f 118/9/9 112/5/5 3/8/8 4/10/10
f 124/11/11 118/12/9 4/13/10 5/14/12
f 130/15/13 124/11/11 5/14/12 6/16/14
f 136/17/15 130/15/13 6/16/14 7/18/16
f 142/19/17 136/17/15 7/18/16 8/20/18
f 148/21/19 142/19/17 8/20/18 9/22/20
f 154/23/21 148/21/19 9/22/20 10/24/22
f 160/25/23 154/23/21 10/24/22 11/26/24
f 152/27/25 155/28/26 161/29/27 158/30/28
f 166/31/29 160/25/23 11/26/24 12/32/30
f 106/6/6 101/33/31 1/34/32 2/7/7
f 98/4/4 100/3/3 107/35/33 104/36/34
f 9/37/20 8/38/18 20/39/35 21/40/36
f 146/41/37 149/42/38 155/28/26 152/27/25
f 140/43/39 143/44/40 149/42/38 146/41/37
f 134/45/41 137/46/42 143/44/40 140/43/39
f 128/47/43 131/48/44 137/46/42 134/45/41
f 122/49/45 125/50/46 131/48/44 128/47/43
f 104/36/34 107/35/33 113/51/47 110/52/48
f 101/33/31 166/31/29 12/32/30 1/34/32
f 116/53/49 119/54/50 125/50/46 122/49/45
f 110/52/48 113/51/47 119/55/50 116/56/49
f 158/30/28 161/29/27 167/2/2 164/1/1
f 14/57/51 13/58/52 25/59/53 26/60/54
f 6/61/14 5/62/12 17/63/55 18/64/56
f 1/65/32 12/66/30 24/67/57 13/68/52
f 3/69/8 2/70/7 14/71/51 15/72/58
f 10/73/22 9/37/20 21/40/36 22/74/59
f 7/75/16 6/61/14 18/64/56 19/76/60
f 4/77/10 3/69/8 15/72/58 16/78/61
f 11/79/24 10/80/22 22/81/59 23/82/62
f 8/38/18 7/75/16 19/76/60 20/39/35
f 5/62/12 4/77/10 16/78/61 17/63/55
f 12/66/30 11/79/24 23/82/62 24/67/57
f 2/70/7 1/65/32 13/68/52 14/71/51
f 36/83/63 35/84/64 47/85/65 48/86/66
f 21/87/36 20/88/35 32/89/67 33/90/68
f 18/91/56 17/92/55 29/93/69 30/94/70
f 13/58/52 24/95/57 36/83/63 25/59/53
f 15/96/58 14/57/51 26/60/54 27/97/71
f 22/98/59 21/87/36 33/90/68 34/99/72
f 19/100/60 18/91/56 30/94/70 31/101/73
f 16/102/61 15/96/58 27/97/71 28/103/74
f 23/104/62 22/105/59 34/106/72 35/84/64
f 20/88/35 19/100/60 31/101/73 32/89/67
f 17/92/55 16/102/61 28/103/74 29/93/69
f 24/95/57 23/104/62 35/84/64 36/83/63
f 41/107/75 40/108/76 52/109/10 53/110/12
f 26/60/54 25/59/53 37/111/77 38/112/78
f 33/90/68 32/89/67 44/113/79 45/114/80
f 30/94/70 29/93/69 41/107/75 42/115/81
f 25/59/53 36/83/63 48/86/66 37/111/77
f 27/97/71 26/60/54 38/112/78 39/116/82
f 34/99/72 33/90/68 45/114/80 46/117/83
f 31/101/73 30/94/70 42/115/81 43/118/84
f 28/103/74 27/97/71 39/116/82 40/108/76
f 35/84/64 34/106/72 46/119/83 47/85/65
f 32/89/67 31/101/73 43/118/84 44/113/79
f 29/93/69 28/103/74 40/108/76 41/107/75
f 53/120/12 52/121/10 64/122/76 65/123/75
f 48/86/66 47/85/65 59/124/24 60/125/30
f 38/112/78 37/111/77 49/126/32 50/127/7
f 45/114/80 44/113/79 56/128/18 57/129/20
f 42/115/81 41/107/75 53/110/12 54/130/14
f 37/111/77 48/86/66 60/125/30 49/126/32
f 39/116/82 38/112/78 50/127/7 51/131/8
f 46/117/83 45/114/80 57/129/20 58/132/22
f 43/118/84 42/115/81 54/130/14 55/133/16
f 40/108/76 39/116/82 51/131/8 52/109/10
f 47/85/65 46/119/83 58/134/22 59/124/24
f 44/113/79 43/118/84 55/133/16 56/128/18
f 68/135/79 67/136/84 79/137/16 80/138/18
f 60/139/30 59/140/24 71/141/65 72/142/66
f 50/143/7 49/144/32 61/145/77 62/146/78
f 57/147/20 56/148/18 68/135/79 69/149/80
f 54/150/14 53/120/12 65/123/75 66/151/81
f 49/144/32 60/139/30 72/142/66 61/145/77
f 51/152/8 50/143/7 62/146/78 63/153/82
f 58/154/22 57/147/20 69/149/80 70/155/83
f 55/156/16 54/150/14 66/151/81 67/136/84
f 52/121/10 51/152/8 63/153/82 64/122/76
f 59/140/24 58/157/22 70/158/83 71/141/65
f 56/148/18 55/156/16 67/136/84 68/135/79
f 80/159/18 79/160/16 91/161/85 92/162/86
f 65/123/75 64/122/76 76/163/10 77/164/12
f 72/142/66 71/141/65 83/165/24 84/166/30
f 62/146/78 61/145/77 73/167/32 74/168/7
f 69/149/80 68/135/79 80/138/18 81/169/20
f 66/151/81 65/123/75 77/164/12 78/170/14
f 61/145/77 72/142/66 84/166/30 73/167/32
f 63/153/82 62/146/78 74/168/7 75/171/8
f 70/155/83 69/149/80 81/169/20 82/172/22
f 67/136/84 66/151/81 78/170/14 79/137/16
f 64/122/76 63/153/82 75/171/8 76/163/10
f 71/141/65 70/158/83 82/173/22 83/165/24
f 86/174/87 85/175/88 96/176/89 95/177/90 94/178/91 93/179/92 92/180/86 91/181/85 90/182/93 89/183/94 88/184/95 87/185/96
f 77/186/12 76/187/10 88/188/95 89/189/94
f 84/190/30 83/191/24 95/177/90 96/192/89
f 74/193/7 73/194/32 85/195/88 86/196/87
f 81/197/20 80/159/18 92/162/86 93/198/92
f 78/199/14 77/186/12 89/189/94 90/200/93
f 73/194/32 84/190/30 96/192/89 85/195/88
f 75/201/8 74/193/7 86/196/87 87/202/96
f 82/203/22 81/197/20 93/198/92 94/204/91
f 79/160/16 78/199/14 90/200/93 91/161/85
f 76/187/10 75/201/8 87/202/96 88/188/95
f 83/191/24 82/205/22 94/178/91 95/177/90
f 98/4/4 104/36/34 105/206/97 99/207/98
f 99/207/98 105/206/97 103/208/99 97/209/100
f 107/35/33 100/3/3 102/210/101 108/211/102
f 108/211/102 102/210/101 101/33/31 106/6/6
f 104/36/34 110/52/48 111/212/103 105/206/97
f 105/206/97 111/212/103 109/213/104 103/208/99
f 113/51/47 107/35/33 108/211/102 114/214/105
f 114/214/105 108/211/102 106/6/6 112/5/5
f 110/52/48 116/56/49 117/215/106 111/212/103
f 111/212/103 117/215/106 115/216/107 109/213/104
f 119/55/50 113/51/47 114/214/105 120/217/108
f 120/217/108 114/214/105 112/5/5 118/9/9
f 116/53/49 122/49/45 123/218/109 117/219/106
f 117/219/106 123/218/109 121/220/110 115/221/107
f 125/50/46 119/54/50 120/222/108 126/223/111
f 126/223/111 120/222/108 118/12/9 124/11/11
f 122/49/45 128/47/43 129/224/112 123/218/109
f 123/218/109 129/224/112 127/225/113 121/220/110
f 131/48/44 125/50/46 126/223/111 132/226/114
f 132/226/114 126/223/111 124/11/11 130/15/13
f 128/47/43 134/45/41 135/227/115 129/224/112
f 129/224/112 135/227/115 133/228/116 127/225/113
f 137/46/42 131/48/44 132/226/114 138/229/117
f 138/229/117 132/226/114 130/15/13 136/17/15
f 134/45/41 140/43/39 141/230/118 135/227/115
f 135/227/115 141/230/118 139/231/119 133/228/116
f 143/44/40 137/46/42 138/229/117 144/232/120
f 144/232/120 138/229/117 136/17/15 142/19/17
f 140/43/39 146/41/37 147/233/121 141/230/118
f 141/230/118 147/233/121 145/234/122 139/231/119
f 149/42/38 143/44/40 144/232/120 150/235/123
f 150/235/123 144/232/120 142/19/17 148/21/19
f 146/41/37 152/27/25 153/236/124 147/233/121
f 147/233/121 153/236/124 151/237/125 145/234/122
f 155/28/26 149/42/38 150/235/123 156/238/126
f 156/238/126 150/235/123 148/21/19 154/23/21
f 152/27/25 158/30/28 159/239/127 153/236/124
f 153/236/124 159/239/127 157/240/128 151/237/125
f 161/29/27 155/28/26 156/238/126 162/241/129
f 162/241/129 156/238/126 154/23/21 160/25/23
f 158/30/28 164/1/1 165/242/130 159/239/127
f 159/239/127 165/242/130 163/243/131 157/240/128
f 167/2/2 161/29/27 162/241/129 168/244/132
f 168/244/132 162/241/129 160/25/23 166/31/29
f 164/1/1 98/4/4 99/207/98 165/242/130
f 165/242/130 99/207/98 97/209/100 163/243/131
f 100/3/3 167/2/2 168/244/132 102/210/101
f 102/210/101 168/244/132 166/31/29 101/33/31
f 97/245/100 103/246/99 109/213/104 115/216/107 121/247/110 127/248/113 133/249/116 139/250/119 145/251/122 151/252/125 157/253/128 163/254/131
